<svg width="1440" height="1024" viewBox="0 0 1440 1024" fill="none" xmlns="http://www.w3.org/2000/svg">
<g clip-path="url(#clip0_0_3)">
<g clip-path="url(#clip1_0_3)">
<g opacity="0.2">
<path d="M718.96 -760.486L719.618 -27.7252V291.636L718.993 1024" stroke="#40E9F1" stroke-linecap="round" stroke-linejoin="round"/>
<path d="M273.442 1024L639.782 291.636V-27.7252L272.281 -760.486" stroke="#40E9F1" stroke-linecap="round" stroke-linejoin="round"/>
<path d="M1165.63 -760.486L799.457 -27.7252V291.636L1164.54 1024" stroke="#40E9F1" stroke-linecap="round" stroke-linejoin="round"/>
<path d="M-172.621 578.334L400.272 291.638V-27.7267L-172.455 -313.6" stroke="#40E9F1" stroke-linecap="round" stroke-linejoin="round"/>
<path d="M-172.621 330.281L1.08658 291.636V-27.7254L-172.621 -66.2736" stroke="#40E9F1" stroke-linecap="round" stroke-linejoin="round"/>
<path d="M-172.621 355.093L80.9268 291.634V-27.7278L-172.621 -91.0215" stroke="#40E9F1" stroke-linecap="round" stroke-linejoin="round"/>
<path d="M-172.621 386.991L160.762 291.638V-27.7236L-172.621 -122.834" stroke="#40E9F1" stroke-linecap="round" stroke-linejoin="round"/>
<path d="M-172.621 429.51L240.596 291.635V-27.7266L-172.621 -165.254" stroke="#40E9F1" stroke-linecap="round" stroke-linejoin="round"/>
<path d="M-172.621 489.049L320.44 291.638V-27.7264L-172.621 -224.629" stroke="#40E9F1" stroke-linecap="round" stroke-linejoin="round"/>
<path d="M-172.621 727.105L480.107 291.637V-27.727L-172.621 -462.078" stroke="#40E9F1" stroke-linecap="round" stroke-linejoin="round"/>
<path d="M-172.101 1024L559.95 291.636V-27.7251L-172.621 -758.721" stroke="#40E9F1" stroke-linecap="round" stroke-linejoin="round"/>
<path d="M1611.86 330.297L1438.16 291.635V-27.726L1611.86 -66.2853" stroke="#40E9F1" stroke-linecap="round" stroke-linejoin="round"/>
<path d="M1611.86 355.12L1358.31 291.636V-27.7256L1611.86 -91.0469" stroke="#40E9F1" stroke-linecap="round" stroke-linejoin="round"/>
<path d="M1611.86 387.032L1278.48 291.637V-27.727L1611.86 -122.879" stroke="#40E9F1" stroke-linecap="round" stroke-linejoin="round"/>
<path d="M1611.86 -165.324L1198.66 -27.7279L1198.65 291.636L1611.86 429.589" stroke="#40E9F1" stroke-linecap="round" stroke-linejoin="round"/>
<path d="M1611.86 -224.764L1118.81 -27.7232L1118.8 291.638L1612.01 489.24" stroke="#40E9F1" stroke-linecap="round" stroke-linejoin="round"/>
<path d="M1612 -314L1038.98 -27.7264L1038.97 291.635L1611.86 578.577" stroke="#40E9F1" stroke-linecap="round" stroke-linejoin="round"/>
<path d="M1612 -462.674L959.137 -27.7258V291.638L1611.86 727.601" stroke="#40E9F1" stroke-linecap="round" stroke-linejoin="round"/>
<path d="M1611.86 -760.025L879.293 -27.7229V291.639L1610.09 1024" stroke="#40E9F1" stroke-linecap="round" stroke-linejoin="round"/>
<path d="M-172.621 291.638H1611.87" stroke="#40E9F1" stroke-linecap="round" stroke-linejoin="round"/>
<path d="M-172.621 211.804H1611.87" stroke="#40E9F1" stroke-linecap="round" stroke-linejoin="round"/>
<path d="M-172.621 131.97H1611.87" stroke="#40E9F1" stroke-linecap="round" stroke-linejoin="round"/>
<path d="M-172.621 52.1238H1611.87" stroke="#40E9F1" stroke-linecap="round" stroke-linejoin="round"/>
<path d="M1611.48 291.638H-172.621" stroke="#40E9F1" stroke-linecap="round" stroke-linejoin="round"/>
<path d="M1611.86 298.813H-172.622" stroke="#40E9F1" stroke-linecap="round" stroke-linejoin="round"/>
<path d="M1611.86 306.663H-172.622" stroke="#40E9F1" stroke-linecap="round" stroke-linejoin="round"/>
<path d="M1611.86 315.292H-172.622" stroke="#40E9F1" stroke-linecap="round" stroke-linejoin="round"/>
<path d="M1611.86 324.803H-172.622" stroke="#40E9F1" stroke-linecap="round" stroke-linejoin="round"/>
<path d="M1611.86 335.362H-172.622" stroke="#40E9F1" stroke-linecap="round" stroke-linejoin="round"/>
<path d="M1611.86 347.141H-172.622" stroke="#40E9F1" stroke-linecap="round" stroke-linejoin="round"/>
<path d="M1611.86 360.376H-172.622" stroke="#40E9F1" stroke-linecap="round" stroke-linejoin="round"/>
<path d="M1611.86 375.331H-172.622" stroke="#40E9F1" stroke-linecap="round" stroke-linejoin="round"/>
<path d="M1611.86 392.382H-172.622" stroke="#40E9F1" stroke-linecap="round" stroke-linejoin="round"/>
<path d="M1611.86 412.003H-172.622" stroke="#40E9F1" stroke-linecap="round" stroke-linejoin="round"/>
<path d="M1611.86 434.825H-172.622" stroke="#40E9F1" stroke-linecap="round" stroke-linejoin="round"/>
<path d="M1611.86 461.682H-172.622" stroke="#40E9F1" stroke-linecap="round" stroke-linejoin="round"/>
<path d="M1611.86 493.766H-172.622" stroke="#40E9F1" stroke-linecap="round" stroke-linejoin="round"/>
<path d="M1611.86 532.765H-173" stroke="#40E9F1" stroke-linecap="round" stroke-linejoin="round"/>
<path d="M1611.86 581.173H-172.622" stroke="#40E9F1" stroke-linecap="round" stroke-linejoin="round"/>
<path d="M1611.86 642.883H-172.622" stroke="#40E9F1" stroke-linecap="round" stroke-linejoin="round"/>
<path d="M1611.86 724.241H-172.622" stroke="#40E9F1" stroke-linecap="round" stroke-linejoin="round"/>
<path d="M1611.86 836.393H-172.622" stroke="#40E9F1" stroke-linecap="round" stroke-linejoin="round"/>
<path d="M1611.86 1000.92H-172.622" stroke="#40E9F1" stroke-linecap="round" stroke-linejoin="round"/>
</g>
</g>
</g>
<defs>
<clipPath id="clip0_0_3">
<rect width="1440" height="1024" fill="white"/>
</clipPath>
<clipPath id="clip1_0_3">
<rect width="1785.02" height="1024" fill="white" transform="translate(-173)"/>
</clipPath>
</defs>
</svg>
